G04 MADE WITH FRITZING*
G04 WWW.FRITZING.ORG*
G04 DOUBLE SIDED*
G04 HOLES PLATED*
G04 CONTOUR ON CENTER OF CONTOUR VECTOR*
%ASAXBY*%
%FSLAX23Y23*%
%MOIN*%
%OFA0B0*%
%SFA1.0B1.0*%
%ADD10C,0.039370*%
%ADD11C,0.075000*%
%ADD12C,0.070925*%
%ADD13C,0.070866*%
%ADD14C,0.070000*%
%ADD15C,0.078000*%
%ADD16C,0.082000*%
%ADD17C,0.140000*%
%ADD18C,0.075833*%
%ADD19R,0.075000X0.075000*%
%ADD20R,0.082000X0.082000*%
%ADD21C,0.024000*%
%ADD22C,0.016000*%
%ADD23C,0.012000*%
%LNCOPPER0*%
G90*
G70*
G54D10*
X805Y1031D03*
X805Y1122D03*
G54D11*
X2505Y671D03*
X2505Y371D03*
X2405Y671D03*
X2405Y371D03*
X2305Y671D03*
X2305Y371D03*
X2205Y671D03*
X2205Y371D03*
X2105Y671D03*
X2105Y371D03*
X2005Y671D03*
X2005Y371D03*
X1905Y671D03*
X1905Y371D03*
X1805Y671D03*
X1805Y371D03*
X1705Y671D03*
X1705Y371D03*
X1605Y671D03*
X1605Y371D03*
X1505Y671D03*
X1505Y371D03*
X1405Y671D03*
X1405Y371D03*
X1305Y671D03*
X1305Y371D03*
X1205Y671D03*
X1205Y371D03*
G54D10*
X2015Y1731D03*
G54D11*
X2263Y1247D03*
X2263Y991D03*
X2085Y1247D03*
X2085Y991D03*
G54D12*
X1845Y1224D03*
G54D13*
X1845Y1031D03*
G54D11*
X2235Y1641D03*
X1935Y1641D03*
G54D14*
X1805Y841D03*
X1906Y841D03*
X1595Y841D03*
X1696Y841D03*
X2035Y1481D03*
X1935Y1481D03*
G54D15*
X2475Y1841D03*
X2475Y1741D03*
X2475Y1641D03*
X2475Y1541D03*
X2475Y1441D03*
X2475Y1341D03*
G54D16*
X595Y591D03*
X595Y691D03*
X595Y791D03*
G54D17*
X535Y301D03*
X295Y301D03*
X415Y111D03*
G54D16*
X975Y351D03*
X677Y351D03*
G54D11*
X805Y141D03*
X905Y141D03*
G54D14*
X805Y671D03*
X805Y771D03*
X1005Y1071D03*
X1005Y971D03*
G54D15*
X2435Y991D03*
X2435Y1091D03*
X2435Y1191D03*
X2545Y991D03*
X2545Y1091D03*
X2545Y1191D03*
X115Y1891D03*
G54D14*
X805Y471D03*
X805Y571D03*
G54D11*
X1215Y1811D03*
X915Y1811D03*
X915Y1691D03*
X1215Y1691D03*
X1215Y1561D03*
X915Y1561D03*
X915Y1181D03*
X1215Y1181D03*
X1215Y1451D03*
X915Y1451D03*
X915Y1301D03*
X1215Y1301D03*
G54D10*
X155Y1121D03*
X505Y1331D03*
X215Y1341D03*
X215Y1421D03*
X2165Y1471D03*
X2235Y1161D03*
X2305Y1341D03*
X2265Y1771D03*
X1225Y881D03*
X1095Y1901D03*
X1085Y841D03*
X1415Y1381D03*
X1465Y561D03*
X1605Y571D03*
X1065Y1231D03*
X1415Y1741D03*
X2395Y791D03*
X2055Y461D03*
X2055Y581D03*
X1355Y1601D03*
X1355Y1221D03*
X1145Y1251D03*
X1365Y511D03*
X1655Y1221D03*
G54D18*
X728Y1991D03*
X828Y1991D03*
X935Y1991D03*
X1035Y1991D03*
X1135Y1991D03*
X1235Y1991D03*
X1335Y1991D03*
X1435Y1991D03*
X1535Y1991D03*
X1635Y1991D03*
X1805Y1991D03*
X1905Y1991D03*
X2005Y1991D03*
X2105Y1991D03*
X2205Y1991D03*
X2305Y1991D03*
X2405Y1991D03*
X2505Y1991D03*
X1105Y91D03*
X1205Y91D03*
X1305Y91D03*
X1405Y91D03*
X1505Y91D03*
X1605Y91D03*
X1705Y91D03*
X1805Y91D03*
X2005Y91D03*
X2105Y91D03*
X2205Y91D03*
X2305Y91D03*
X2405Y91D03*
X2505Y91D03*
G54D19*
X2505Y671D03*
G54D20*
X595Y591D03*
X976Y351D03*
G54D19*
X805Y141D03*
G54D21*
X805Y911D02*
X916Y831D01*
D02*
X916Y831D02*
X916Y820D01*
D02*
X916Y820D02*
X916Y631D01*
D02*
X916Y631D02*
X1076Y440D01*
D02*
X1076Y440D02*
X1076Y301D01*
D02*
X1076Y301D02*
X1154Y240D01*
D02*
X1154Y240D02*
X1335Y242D01*
D02*
X1335Y242D02*
X1405Y171D01*
D02*
X1405Y171D02*
X1405Y119D01*
D02*
X805Y1012D02*
X805Y911D01*
D02*
X836Y1122D02*
X824Y1122D01*
D02*
X916Y971D02*
X836Y1122D01*
D02*
X979Y971D02*
X916Y971D01*
D02*
X596Y351D02*
X583Y340D01*
D02*
X645Y351D02*
X596Y351D01*
D02*
X746Y112D02*
X476Y111D01*
D02*
X780Y129D02*
X746Y112D01*
D02*
X705Y471D02*
X617Y568D01*
D02*
X779Y471D02*
X705Y471D01*
D02*
X755Y692D02*
X627Y691D01*
D02*
X781Y681D02*
X755Y692D01*
D02*
X765Y792D02*
X782Y783D01*
D02*
X627Y791D02*
X765Y792D01*
D02*
X2505Y343D02*
X2505Y119D01*
D02*
X2405Y343D02*
X2405Y119D01*
D02*
X2305Y343D02*
X2305Y119D01*
D02*
X2205Y343D02*
X2205Y119D01*
D02*
X2105Y343D02*
X2105Y119D01*
D02*
X1677Y91D02*
X1634Y91D01*
D02*
X2005Y343D02*
X2005Y119D01*
D02*
X1905Y260D02*
X1705Y160D01*
D02*
X1705Y160D02*
X1705Y119D01*
D02*
X1905Y343D02*
X1905Y260D01*
D02*
X1907Y530D02*
X1906Y400D01*
D02*
X1806Y601D02*
X1907Y530D01*
D02*
X1806Y643D02*
X1806Y601D01*
D02*
X1505Y171D02*
X1694Y282D01*
D02*
X1694Y282D02*
X1702Y343D01*
D02*
X1505Y119D02*
X1505Y171D01*
D02*
X976Y201D02*
X927Y160D01*
D02*
X975Y319D02*
X976Y201D01*
D02*
X805Y645D02*
X805Y598D01*
D02*
X805Y341D02*
X805Y170D01*
D02*
X894Y432D02*
X805Y341D01*
D02*
X896Y542D02*
X894Y432D01*
D02*
X855Y571D02*
X896Y542D01*
D02*
X831Y571D02*
X855Y571D01*
D02*
X1655Y462D02*
X1705Y420D01*
D02*
X1186Y462D02*
X1655Y462D01*
D02*
X1005Y651D02*
X1186Y462D01*
D02*
X1008Y813D02*
X1005Y651D01*
D02*
X1006Y945D02*
X1008Y813D01*
G54D22*
D02*
X1785Y841D02*
X1716Y841D01*
D02*
X1905Y972D02*
X1860Y1016D01*
D02*
X1905Y862D02*
X1905Y972D01*
D02*
X1599Y821D02*
X1605Y792D01*
D02*
X2505Y810D02*
X2505Y694D01*
D02*
X2436Y882D02*
X2505Y810D01*
D02*
X2436Y967D02*
X2436Y882D01*
G54D21*
D02*
X1025Y1089D02*
X1124Y1181D01*
D02*
X1124Y1181D02*
X1187Y1181D01*
G54D22*
D02*
X1215Y1204D02*
X1215Y1278D01*
D02*
X915Y1714D02*
X915Y1788D01*
D02*
X229Y1421D02*
X536Y1421D01*
D02*
X536Y1421D02*
X897Y1678D01*
D02*
X1336Y1891D02*
X1336Y1969D01*
D02*
X1235Y1824D02*
X1336Y1891D01*
G54D23*
D02*
X1035Y1881D02*
X1096Y1821D01*
D02*
X1096Y1742D02*
X1155Y1691D01*
D02*
X1036Y1969D02*
X1036Y1942D01*
G54D22*
D02*
X1296Y1751D02*
X1435Y1881D01*
D02*
X1296Y1451D02*
X1296Y1751D01*
D02*
X1435Y1881D02*
X1435Y1969D01*
D02*
X1238Y1451D02*
X1296Y1451D01*
D02*
X1005Y1502D02*
X935Y1549D01*
D02*
X1005Y1232D02*
X1005Y1502D01*
D02*
X935Y1193D02*
X1005Y1232D01*
G54D21*
D02*
X915Y1330D02*
X915Y1423D01*
G54D22*
D02*
X1935Y1502D02*
X1935Y1618D01*
G54D23*
D02*
X1535Y1171D02*
X1534Y1520D01*
D02*
X1534Y1520D02*
X1534Y1600D01*
D02*
X1534Y1600D02*
X1535Y1781D01*
D02*
X1535Y1781D02*
X1635Y1871D01*
D02*
X1205Y782D02*
X1535Y1171D01*
D02*
X1635Y1871D02*
X1635Y1969D01*
D02*
X1205Y694D02*
X1205Y782D01*
D02*
X1584Y1152D02*
X1584Y1742D01*
D02*
X1584Y1742D02*
X1804Y1920D01*
D02*
X1804Y1920D02*
X1805Y1969D01*
D02*
X1305Y821D02*
X1584Y1152D01*
D02*
X1305Y694D02*
X1305Y821D01*
D02*
X1715Y1142D02*
X1715Y1212D01*
D02*
X1715Y1212D02*
X1715Y1250D01*
D02*
X1715Y1250D02*
X1715Y1771D01*
D02*
X1715Y1771D02*
X1905Y1932D01*
D02*
X1905Y1932D02*
X1905Y1969D01*
D02*
X1406Y781D02*
X1715Y1142D01*
D02*
X1405Y694D02*
X1406Y781D01*
G54D22*
D02*
X2007Y1292D02*
X1836Y1390D01*
D02*
X1836Y1390D02*
X1826Y1692D01*
D02*
X1826Y1692D02*
X2105Y1901D01*
D02*
X2105Y1901D02*
X2105Y1969D01*
D02*
X2007Y1120D02*
X2007Y1292D01*
D02*
X2005Y694D02*
X2007Y1120D01*
D02*
X2124Y1552D02*
X2194Y1551D01*
D02*
X2194Y1551D02*
X2225Y1511D01*
D02*
X2045Y1651D02*
X2124Y1552D01*
D02*
X2225Y1300D02*
X2249Y1266D01*
D02*
X2225Y1511D02*
X2225Y1300D01*
D02*
X1958Y1643D02*
X2045Y1651D01*
D02*
X2105Y771D02*
X2105Y694D01*
D02*
X2105Y891D02*
X2105Y771D01*
D02*
X2165Y1458D02*
X2156Y931D01*
D02*
X2156Y931D02*
X2105Y891D01*
D02*
X2554Y1547D02*
X2554Y1940D01*
D02*
X2554Y1940D02*
X2521Y1975D01*
D02*
X2500Y1543D02*
X2554Y1547D01*
D02*
X2356Y1440D02*
X2355Y1881D01*
D02*
X2355Y1881D02*
X2405Y1931D01*
D02*
X2405Y1931D02*
X2405Y1969D01*
D02*
X2451Y1441D02*
X2356Y1440D01*
D02*
X2305Y740D02*
X2305Y694D01*
D02*
X2275Y781D02*
X2305Y740D01*
D02*
X2275Y862D02*
X2275Y781D01*
D02*
X2326Y910D02*
X2275Y862D01*
D02*
X2336Y1280D02*
X2326Y910D01*
D02*
X2354Y1302D02*
X2336Y1280D01*
D02*
X2354Y1440D02*
X2354Y1302D01*
D02*
X2451Y1441D02*
X2354Y1440D01*
D02*
X2196Y800D02*
X2205Y780D01*
D02*
X2205Y780D02*
X2205Y694D01*
D02*
X2196Y1071D02*
X2196Y800D01*
D02*
X2230Y1149D02*
X2196Y1071D01*
D02*
X2645Y1420D02*
X2645Y1421D01*
D02*
X2500Y1541D02*
X2545Y1540D01*
D02*
X2545Y1540D02*
X2645Y1471D01*
D02*
X2305Y1731D02*
X2305Y1355D01*
D02*
X2275Y1762D02*
X2305Y1731D01*
D02*
X2305Y1942D02*
X2305Y1951D01*
D02*
X2185Y1792D02*
X2305Y1942D01*
D02*
X2305Y1951D02*
X2305Y1969D01*
D02*
X2026Y1740D02*
X2085Y1792D01*
D02*
X2085Y1792D02*
X2185Y1792D01*
G54D23*
D02*
X1476Y1191D02*
X1476Y1401D01*
D02*
X1476Y1401D02*
X1476Y1821D01*
D02*
X1476Y1821D02*
X1535Y1881D01*
D02*
X1535Y1881D02*
X1535Y1969D01*
D02*
X1225Y895D02*
X1225Y920D01*
D02*
X2006Y1922D02*
X2005Y1969D01*
D02*
X1755Y1721D02*
X2006Y1922D01*
D02*
X1755Y1201D02*
X1755Y1721D01*
G54D22*
D02*
X1236Y1931D02*
X1236Y1969D01*
D02*
X1205Y1902D02*
X1236Y1931D01*
D02*
X1109Y1901D02*
X1205Y1902D01*
G54D23*
D02*
X1296Y1451D02*
X1238Y1451D01*
D02*
X1296Y1142D02*
X1296Y1451D01*
D02*
X1085Y920D02*
X1296Y1142D01*
D02*
X1085Y855D02*
X1085Y920D01*
D02*
X1166Y831D02*
X1105Y771D01*
D02*
X1105Y771D02*
X1105Y651D01*
D02*
X1105Y651D02*
X1185Y560D01*
D02*
X1185Y560D02*
X1452Y561D01*
D02*
X1165Y932D02*
X1166Y831D01*
D02*
X1416Y1191D02*
X1165Y932D01*
D02*
X1415Y1368D02*
X1416Y1191D01*
D02*
X1096Y1821D02*
X1096Y1742D01*
D02*
X1155Y1691D02*
X1192Y1691D01*
D02*
X1036Y1942D02*
X1035Y1881D01*
G54D21*
D02*
X1705Y420D02*
X1705Y400D01*
G54D23*
D02*
X1015Y1601D02*
X1016Y1742D01*
D02*
X1015Y1831D02*
X936Y1902D01*
D02*
X1016Y1742D02*
X1015Y1831D01*
D02*
X936Y1902D02*
X935Y1969D01*
D02*
X1065Y1551D02*
X1015Y1601D01*
D02*
X1065Y1245D02*
X1065Y1551D01*
G54D22*
D02*
X1845Y1151D02*
X1845Y1203D01*
D02*
X1608Y857D02*
X1845Y1151D01*
D02*
X2645Y1421D02*
X2636Y862D01*
D02*
X2636Y862D02*
X2636Y791D01*
D02*
X2636Y791D02*
X2636Y612D01*
D02*
X2636Y612D02*
X2575Y561D01*
D02*
X2575Y561D02*
X2446Y561D01*
D02*
X2446Y561D02*
X2406Y601D01*
D02*
X2406Y601D02*
X2406Y648D01*
G54D23*
D02*
X1755Y1201D02*
X1755Y1122D01*
D02*
X1755Y1122D02*
X1506Y831D01*
D02*
X1506Y831D02*
X1506Y694D01*
G54D22*
D02*
X1415Y1728D02*
X1415Y1395D01*
D02*
X2386Y1092D02*
X2411Y1092D01*
D02*
X2366Y1071D02*
X2386Y1092D01*
D02*
X2366Y841D02*
X2366Y961D01*
D02*
X2366Y961D02*
X2366Y1071D01*
D02*
X2389Y803D02*
X2366Y841D01*
D02*
X1845Y762D02*
X1893Y825D01*
D02*
X1735Y761D02*
X1845Y762D01*
D02*
X1705Y721D02*
X1735Y761D01*
D02*
X1705Y694D02*
X1705Y721D01*
G54D23*
D02*
X2055Y568D02*
X2055Y475D01*
G54D22*
D02*
X1806Y472D02*
X1805Y394D01*
D02*
X1685Y571D02*
X1806Y472D01*
D02*
X1619Y571D02*
X1685Y571D01*
D02*
X1355Y1235D02*
X1355Y1588D01*
G54D23*
D02*
X1146Y1521D02*
X1195Y1550D01*
D02*
X1145Y1265D02*
X1146Y1521D01*
D02*
X1546Y542D02*
X1526Y512D01*
D02*
X1526Y512D02*
X1379Y511D01*
D02*
X1546Y581D02*
X1546Y542D01*
D02*
X1526Y601D02*
X1546Y581D01*
D02*
X1385Y601D02*
X1526Y601D01*
D02*
X1355Y801D02*
X1355Y631D01*
D02*
X1355Y631D02*
X1385Y601D01*
D02*
X1656Y1208D02*
X1656Y1152D01*
G54D22*
D02*
X1605Y792D02*
X1605Y694D01*
G54D23*
D02*
X1355Y801D02*
X1355Y801D01*
D02*
X1656Y1152D02*
X1355Y801D01*
D02*
X1225Y920D02*
X1476Y1191D01*
G54D22*
D02*
X644Y1221D02*
X736Y1302D01*
D02*
X244Y1121D02*
X325Y1221D01*
D02*
X325Y1221D02*
X644Y1221D01*
D02*
X169Y1121D02*
X244Y1121D01*
D02*
X736Y1302D02*
X892Y1301D01*
D02*
X492Y1332D02*
X229Y1341D01*
D02*
X2645Y1471D02*
X2645Y1420D01*
G04 End of Copper0*
M02*