; NON-PLATED HOLES START AT T1
; THROUGH (PLATED) HOLES START AT T100
M48
INCH
T100C0.038000
T101C0.100000
T102C0.031555
T103C0.015748
T104C0.035000
T105C0.034167
T106C0.042000
T107C0.030000
T108C0.031496
%
T100
X024753Y013412
X025453Y011912
X024753Y014412
X025453Y009912
X024753Y015412
X024353Y010912
X024753Y016412
X024353Y011912
X024753Y017412
X001153Y018912
X024753Y018412
X025453Y010912
X024353Y009912
T101
X004153Y001112
X002953Y003012
X005353Y003012
T102
X018453Y012243
T103
X023953Y007912
X014153Y017412
X021653Y014712
X020553Y005812
X014653Y005612
X020153Y017312
X011453Y012512
X013553Y012212
X023053Y013412
X010653Y012312
X001553Y011212
X013653Y005112
X008053Y011223
X010953Y019012
X008053Y010312
X016053Y005712
X010853Y008412
X005053Y013312
X020553Y004612
X002153Y014212
X002153Y013412
X014153Y013812
X012253Y008812
X022353Y011612
X022653Y017712
X016553Y012212
X013553Y016012
T104
X022053Y006712
X024053Y006712
X009153Y018112
X020853Y009912
X012153Y016912
X012153Y018112
X019353Y016412
X022353Y016412
X008053Y001412
X022625Y012471
X013053Y003712
X015053Y003712
X017053Y003712
X009053Y001412
X009153Y015612
X009153Y011812
X012053Y003712
X014053Y003712
X016053Y003712
X018053Y003712
X019053Y003712
X009153Y013012
X020053Y003712
X012153Y015612
X013053Y006712
X015053Y006712
X017053Y006712
X012153Y011812
X020853Y012471
X009153Y014512
X021053Y003712
X023053Y003712
X025053Y003712
X012053Y006712
X014053Y006712
X016053Y006712
X018053Y006712
X022053Y003712
X024053Y003712
X022625Y009912
X019053Y006712
X012153Y013012
X009153Y016912
X020053Y006712
X012153Y014512
X021053Y006712
X023053Y006712
X025053Y006712
T105
X023053Y000912
X022053Y000912
X017053Y000912
X025053Y019912
X020053Y000912
X016053Y000912
X024053Y019912
X015353Y019912
X018053Y019912
X014353Y019912
X013053Y000912
X021053Y019912
X009353Y019912
X012053Y000912
X012353Y019912
X011353Y019912
X008283Y019912
X025053Y000912
X024053Y000912
X018053Y000912
X021053Y000912
X016353Y019912
X015053Y000912
X023053Y019912
X019053Y019912
X014053Y000912
X022053Y019912
X013353Y019912
X020053Y019912
X011053Y000912
X010353Y019912
X007283Y019912
T106
X006773Y003512
X005953Y006912
X009753Y003512
X005953Y007912
X005953Y005912
T107
X008053Y005714
X015953Y008412
X008053Y006712
X016955Y008412
X010053Y010712
X008053Y007714
X020353Y014812
X018053Y008412
X010053Y009710
X019352Y014812
X019055Y008412
X008053Y004712
T108
X018453Y010312
T00
M30
